<?xml version="1.0" encoding="UTF-8" standalone="no"?>
<!DOCTYPE svg PUBLIC "-//W3C//DTD SVG 1.1//EN"
 "http://www.w3.org/Graphics/SVG/1.1/DTD/svg11.dtd">
<!-- Generated by graphviz version 14.0.5 (20251129.0259)
 -->
<!-- Title: FSM Pages: 1 -->
<svg width="6650pt" height="382pt"
 viewBox="0.00 0.00 6650.00 382.00" xmlns="http://www.w3.org/2000/svg" xmlns:xlink="http://www.w3.org/1999/xlink">
<g id="graph0" class="graph" transform="scale(1 1) rotate(0) translate(4 378.07)">
<title>FSM</title>
<polygon fill="white" stroke="none" points="-4,4 -4,-378.07 6645.61,-378.07 6645.61,4 -4,4"/>
<!-- start -->
<g id="node1" class="node">
<title>start</title>
<ellipse fill="black" stroke="black" cx="1.8" cy="-145.01" rx="1.8" ry="1.8"/>
</g>
<!-- q0 -->
<g id="node2" class="node">
<title>q0</title>
<ellipse fill="none" stroke="black" cx="67.6" cy="-145.01" rx="27" ry="18"/>
<text xml:space="preserve" text-anchor="middle" x="67.6" y="-139.96" font-family="Times New Roman,serif" font-size="14.00">q0</text>
</g>
<!-- start&#45;&gt;q0 -->
<g id="edge1" class="edge">
<title>start&#45;&gt;q0</title>
<path fill="none" stroke="black" d="M3.91,-145.01C7.21,-145.01 17.46,-145.01 28.73,-145.01"/>
<polygon fill="black" stroke="black" points="28.62,-148.51 38.62,-145.01 28.62,-141.51 28.62,-148.51"/>
</g>
<!-- q3 -->
<g id="node3" class="node">
<title>q3</title>
<ellipse fill="none" stroke="black" cx="3823.97" cy="-305.01" rx="20.13" ry="20.13"/>
<ellipse fill="none" stroke="black" cx="3823.97" cy="-305.01" rx="24.13" ry="24.13"/>
<text xml:space="preserve" text-anchor="middle" x="3823.97" y="-299.96" font-family="Times New Roman,serif" font-size="14.00">q3</text>
</g>
<!-- q0&#45;&gt;q3 -->
<g id="edge3" class="edge">
<title>q0&#45;&gt;q3</title>
<path fill="none" stroke="black" d="M70.95,-163.18C74.99,-186.19 85.62,-224.98 112.6,-243.01 478.89,-487.74 662.92,-262.89 1103.35,-272.01 2203.7,-294.79 3554.82,-303.44 3787.94,-304.81"/>
<polygon fill="black" stroke="black" points="3787.84,-308.31 3797.86,-304.87 3787.88,-301.31 3787.84,-308.31"/>
<text xml:space="preserve" text-anchor="middle" x="598.98" y="-360.77" font-family="Times New Roman,serif" font-size="14.00">&#39;!&#39;</text>
</g>
<!-- q4 -->
<g id="node4" class="node">
<title>q4</title>
<ellipse fill="none" stroke="black" cx="3823.97" cy="-204.01" rx="20.13" ry="20.13"/>
<ellipse fill="none" stroke="black" cx="3823.97" cy="-204.01" rx="24.13" ry="24.13"/>
<text xml:space="preserve" text-anchor="middle" x="3823.97" y="-198.96" font-family="Times New Roman,serif" font-size="14.00">q4</text>
</g>
<!-- q0&#45;&gt;q4 -->
<g id="edge5" class="edge">
<title>q0&#45;&gt;q4</title>
<path fill="none" stroke="black" d="M91.58,-153.73C98.26,-155.88 105.64,-157.88 112.6,-159.01 874.3,-282 3459.13,-214.22 3788.38,-205"/>
<polygon fill="black" stroke="black" points="3788.13,-208.51 3798.03,-204.73 3787.93,-201.51 3788.13,-208.51"/>
<text xml:space="preserve" text-anchor="middle" x="598.98" y="-225.9" font-family="Times New Roman,serif" font-size="14.00">&#39;0&#39;,&#39;1&#39;,&#39;2&#39;,&#39;3&#39;,&#39;4&#39;,&#39;5&#39;,&#39;6&#39;,&#39;7&#39;,&#39;8&#39;,&#39;9&#39;,&#39;A&#39;,&#39;B&#39;,&#39;C&#39;,&#39;D&#39;,&#39;E&#39;,&#39;F&#39;,&#39;G&#39;,&#39;H&#39;,&#39;I&#39;,&#39;J&#39;,&#39;K&#39;,&#39;L&#39;,&#39;M&#39;,&#39;N&#39;,&#39;O&#39;,&#39;P&#39;,&#39;Q&#39;,&#39;R&#39;,&#39;S&#39;,&#39;T&#39;,&#39;U&#39;,&#39;V&#39;,&#39;W&#39;,&#39;X&#39;,&#39;Y&#39;,&#39;Z&#39;,&#39;a&#39;,&#39;b&#39;,&#39;c&#39;,&#39;d&#39;,&#39;e&#39;,&#39;f&#39;,&#39;g&#39;,&#39;h&#39;,&#39;i&#39;,&#39;j&#39;,&#39;k&#39;,&#39;l&#39;,&#39;m&#39;,&#39;n&#39;,&#39;o&#39;,&#39;p&#39;,&#39;q&#39;,&#39;r&#39;,&#39;s&#39;,&#39;t&#39;,&#39;u&#39;,&#39;v&#39;,&#39;w&#39;,&#39;x&#39;,&#39;y&#39;,&#39;z&#39;</text>
</g>
<!-- q5 -->
<g id="node5" class="node">
<title>q5</title>
<ellipse fill="none" stroke="black" cx="6617.48" cy="-129.01" rx="20.13" ry="20.13"/>
<ellipse fill="none" stroke="black" cx="6617.48" cy="-129.01" rx="24.13" ry="24.13"/>
<text xml:space="preserve" text-anchor="middle" x="6617.48" y="-123.96" font-family="Times New Roman,serif" font-size="14.00">q5</text>
</g>
<!-- q0&#45;&gt;q5 -->
<g id="edge2" class="edge">
<title>q0&#45;&gt;q5</title>
<path fill="none" stroke="black" d="M95.03,-145.12C489.69,-146.82 5190.92,-166.14 6575.35,-131.01 6577.4,-130.96 6579.52,-130.89 6581.65,-130.82"/>
<polygon fill="black" stroke="black" points="6581.64,-134.32 6591.48,-130.4 6581.35,-127.33 6581.64,-134.32"/>
<text xml:space="preserve" text-anchor="middle" x="3823.97" y="-155.14" font-family="Times New Roman,serif" font-size="14.00">0x01,0x02,0x03,0x04,0x05,0x06,0x07,0x08,0x0E,0x0F,0x10,0x11,0x12,0x13,0x14,0x15,0x16,0x17,0x18,0x19,0x1A,0x1B,0x1C,0x1D,0x1E,0x1F,&#39;&quot;&#39;,&#39;#&#39;,&#39;$&#39;,&#39;%&#39;,&#39;&amp;&#39;,&#39;&#39;&#39;,&#39;(&#39;,&#39;)&#39;,&#39;*&#39;,&#39;,&#39;,&#39;.&#39;,&#39;/&#39;,&#39;:&#39;,&#39;;&#39;,&#39;&gt;&#39;,&#39;?&#39;,&#39;@&#39;,&#39;[&#39;,&#39;&#39;,&#39;]&#39;,&#39;^&#39;,&#39;`&#39;,&#39;{&#39;,&#39;|&#39;,&#39;}&#39;,&#39;~&#39;,0x7F,0x80,0x81,0x82,0x83,0x84,0x85,0x86,0x87,0x88,0x89,0x8A,0x8B,0x8C,0x8D,0x8E,0x8F,0x90,0x91,0x92,0x93,0x94,0x95,0x96,0x97,0x98,0x99,0x9A,0x9B,0x9C,0x9D,0x9E,0x9F,0xA0,0xA1,0xA2,0xA3,0xA4,0xA5,0xA6,0xA7,0xA8,0xA9,0xAA,0xAB,0xAC,0xAD,0xAE,0xAF,0xB0,0xB1,0xB2,0xB3,0xB4,0xB5,0xB6,0xB7,0xB8,0xB9,0xBA,0xBB,0xBC,0xBD,0xBE,0xBF,0xC0,0xC1,0xC2,0xC3,0xC4,0xC5,0xC6,0xC7,0xC8,0xC9,0xCA,0xCB,0xCC,0xCD,0xCE,0xCF,0xD0,0xD1,0xD2,0xD3,0xD4,0xD5,0xD6,0xD7,0xD8,0xD9,0xDA,0xDB,0xDC,0xDD,0xDE,0xDF,0xE0,0xE1,0xE2,0xE3,0xE4,0xE5,0xE6,0xE7,0xE8,0xE9,0xEA,0xEB,0xEC,0xED,0xEE,0xEF,0xF0,0xF1,0xF2,0xF3,0xF4,0xF5,0xF6,0xF7,0xF8,0xF9,0xFA,0xFB,0xFC,0xFD,0xFE,0xFF</text>
</g>
<!-- q1 -->
<g id="node6" class="node">
<title>q1</title>
<ellipse fill="none" stroke="black" cx="3823.97" cy="-89.01" rx="20.13" ry="20.13"/>
<text xml:space="preserve" text-anchor="middle" x="3823.97" y="-83.96" font-family="Times New Roman,serif" font-size="14.00">q1</text>
</g>
<!-- q0&#45;&gt;q1 -->
<g id="edge4" class="edge">
<title>q0&#45;&gt;q1</title>
<path fill="none" stroke="black" d="M84.46,-130.54C92.32,-124.33 102.32,-117.76 112.6,-114.51 298.34,-55.73 3447.15,-85.28 3792.33,-88.7"/>
<polygon fill="black" stroke="black" points="3792.08,-92.2 3802.11,-88.8 3792.15,-85.2 3792.08,-92.2"/>
<text xml:space="preserve" text-anchor="middle" x="598.98" y="-117.71" font-family="Times New Roman,serif" font-size="14.00">&#39;&#45;&#39;</text>
</g>
<!-- q2 -->
<g id="node7" class="node">
<title>q2</title>
<ellipse fill="none" stroke="black" cx="3823.97" cy="-31.01" rx="20.13" ry="20.13"/>
<text xml:space="preserve" text-anchor="middle" x="3823.97" y="-25.96" font-family="Times New Roman,serif" font-size="14.00">q2</text>
</g>
<!-- q0&#45;&gt;q2 -->
<g id="edge7" class="edge">
<title>q0&#45;&gt;q2</title>
<path fill="none" stroke="black" d="M72.38,-126.91C77.63,-106.94 89.23,-75.74 112.6,-61.51 278.99,39.83 3445.03,-23.14 3792.16,-30.36"/>
<polygon fill="black" stroke="black" points="3791.93,-33.85 3802,-30.56 3792.08,-26.86 3791.93,-33.85"/>
<text xml:space="preserve" text-anchor="middle" x="598.98" y="-64.71" font-family="Times New Roman,serif" font-size="14.00">&#39;=&#39;</text>
</g>
<!-- q3&#45;&gt;q5 -->
<g id="edge9" class="edge">
<title>q3&#45;&gt;q5</title>
<path fill="none" stroke="black" d="M3848.22,-306.18C4099.23,-318.6 6302.97,-423.02 6544.6,-272.01 6582.49,-248.33 6601.15,-197.97 6609.78,-163.79"/>
<polygon fill="black" stroke="black" points="6613.11,-164.89 6611.99,-154.36 6606.3,-163.29 6613.11,-164.89"/>
<text xml:space="preserve" text-anchor="middle" x="6568.98" y="-259.02" font-family="Times New Roman,serif" font-size="14.00">&#39;=&#39;</text>
</g>
<!-- q4&#45;&gt;q4 -->
<g id="edge6" class="edge">
<title>q4&#45;&gt;q4</title>
<path fill="none" stroke="black" d="M3799.64,-204.52C3137.82,-218.72 3145.93,-246.14 3823.97,-246.14 4498.21,-246.14 4510.01,-219.03 3859.39,-204.76"/>
<polygon fill="black" stroke="black" points="3859.9,-201.27 3849.82,-204.55 3859.74,-208.27 3859.9,-201.27"/>
<text xml:space="preserve" text-anchor="middle" x="3823.97" y="-249.34" font-family="Times New Roman,serif" font-size="14.00">&#39;0&#39;,&#39;1&#39;,&#39;2&#39;,&#39;3&#39;,&#39;4&#39;,&#39;5&#39;,&#39;6&#39;,&#39;7&#39;,&#39;8&#39;,&#39;9&#39;,&#39;A&#39;,&#39;B&#39;,&#39;C&#39;,&#39;D&#39;,&#39;E&#39;,&#39;F&#39;,&#39;G&#39;,&#39;H&#39;,&#39;I&#39;,&#39;J&#39;,&#39;K&#39;,&#39;L&#39;,&#39;M&#39;,&#39;N&#39;,&#39;O&#39;,&#39;P&#39;,&#39;Q&#39;,&#39;R&#39;,&#39;S&#39;,&#39;T&#39;,&#39;U&#39;,&#39;V&#39;,&#39;W&#39;,&#39;X&#39;,&#39;Y&#39;,&#39;Z&#39;,&#39;a&#39;,&#39;b&#39;,&#39;c&#39;,&#39;d&#39;,&#39;e&#39;,&#39;f&#39;,&#39;g&#39;,&#39;h&#39;,&#39;i&#39;,&#39;j&#39;,&#39;k&#39;,&#39;l&#39;,&#39;m&#39;,&#39;n&#39;,&#39;o&#39;,&#39;p&#39;,&#39;q&#39;,&#39;r&#39;,&#39;s&#39;,&#39;t&#39;,&#39;u&#39;,&#39;v&#39;,&#39;w&#39;,&#39;x&#39;,&#39;y&#39;,&#39;z&#39;</text>
</g>
<!-- q1&#45;&gt;q5 -->
<g id="edge10" class="edge">
<title>q1&#45;&gt;q5</title>
<path fill="none" stroke="black" d="M3844.38,-88.8C4075.05,-86.36 6290.09,-64.34 6575.35,-114.51 6578.16,-115 6581.03,-115.66 6583.88,-116.43"/>
<polygon fill="black" stroke="black" points="6582.61,-119.7 6593.2,-119.36 6584.7,-113.02 6582.61,-119.7"/>
<text xml:space="preserve" text-anchor="middle" x="6568.98" y="-117.71" font-family="Times New Roman,serif" font-size="14.00">&#39;&gt;&#39;</text>
</g>
<!-- q2&#45;&gt;q5 -->
<g id="edge8" class="edge">
<title>q2&#45;&gt;q5</title>
<path fill="none" stroke="black" d="M3844.3,-30.35C4074.03,-22.64 6279.46,48.3 6544.6,-60.01 6565.08,-68.38 6583.04,-85.6 6595.88,-100.75"/>
<polygon fill="black" stroke="black" points="6592.87,-102.6 6601.88,-108.17 6598.32,-98.2 6592.87,-102.6"/>
<text xml:space="preserve" text-anchor="middle" x="6568.98" y="-81.93" font-family="Times New Roman,serif" font-size="14.00">&#39;=&#39;</text>
</g>
</g>
</svg>
