<?xml version="1.0" encoding="UTF-8" standalone="no"?>
<!DOCTYPE svg PUBLIC "-//W3C//DTD SVG 1.1//EN"
 "http://www.w3.org/Graphics/SVG/1.1/DTD/svg11.dtd">
<!-- Generated by graphviz version 14.0.5 (20251129.0259)
 -->
<!-- Title: FSM Pages: 1 -->
<svg width="1233pt" height="1076pt"
 viewBox="0.00 0.00 1233.00 1076.00" xmlns="http://www.w3.org/2000/svg" xmlns:xlink="http://www.w3.org/1999/xlink">
<g id="graph0" class="graph" transform="scale(1 1) rotate(0) translate(4 1071.87)">
<title>FSM</title>
<polygon fill="white" stroke="none" points="-4,4 -4,-1071.87 1229.1,-1071.87 1229.1,4 -4,4"/>
<!-- start -->
<g id="node1" class="node">
<title>start</title>
<ellipse fill="black" stroke="black" cx="1.8" cy="-654.74" rx="1.8" ry="1.8"/>
</g>
<!-- q0 -->
<g id="node2" class="node">
<title>q0</title>
<ellipse fill="none" stroke="black" cx="67.6" cy="-654.74" rx="27" ry="18"/>
<text xml:space="preserve" text-anchor="middle" x="67.6" y="-649.69" font-family="Times New Roman,serif" font-size="14.00">q0</text>
</g>
<!-- start&#45;&gt;q0 -->
<g id="edge1" class="edge">
<title>start&#45;&gt;q0</title>
<path fill="none" stroke="black" d="M3.91,-654.74C7.21,-654.74 17.46,-654.74 28.73,-654.74"/>
<polygon fill="black" stroke="black" points="28.62,-658.24 38.62,-654.74 28.62,-651.24 28.62,-658.24"/>
</g>
<!-- q3 -->
<g id="node3" class="node">
<title>q3</title>
<ellipse fill="none" stroke="black" cx="233.46" cy="-1043.74" rx="20.13" ry="20.13"/>
<ellipse fill="none" stroke="black" cx="233.46" cy="-1043.74" rx="24.13" ry="24.13"/>
<text xml:space="preserve" text-anchor="middle" x="233.46" y="-1038.69" font-family="Times New Roman,serif" font-size="14.00">q3</text>
</g>
<!-- q0&#45;&gt;q3 -->
<g id="edge2" class="edge">
<title>q0&#45;&gt;q3</title>
<path fill="none" stroke="black" d="M68.18,-672.85C67.05,-738.75 66.64,-964.51 112.6,-1015.74 133.73,-1039.29 170.52,-1044.96 197.78,-1045.56"/>
<polygon fill="black" stroke="black" points="197.67,-1049.06 207.67,-1045.54 197.66,-1042.06 197.67,-1049.06"/>
<text xml:space="preserve" text-anchor="middle" x="118.22" y="-1028.27" font-family="Times New Roman,serif" font-size="14.00">&#39;!&#39;</text>
</g>
<!-- q50 -->
<g id="node4" class="node">
<title>q50</title>
<ellipse fill="none" stroke="black" cx="1196.36" cy="-570.74" rx="24.74" ry="24.74"/>
<ellipse fill="none" stroke="black" cx="1196.36" cy="-570.74" rx="28.74" ry="28.74"/>
<text xml:space="preserve" text-anchor="middle" x="1196.36" y="-565.69" font-family="Times New Roman,serif" font-size="14.00">q50</text>
</g>
<!-- q0&#45;&gt;q50 -->
<g id="edge3" class="edge">
<title>q0&#45;&gt;q50</title>
<path fill="none" stroke="black" d="M69.84,-673.08C73.89,-729.52 87.92,-899.77 112.6,-948.74 127.59,-978.48 132.28,-1001.74 165.59,-1001.74 165.59,-1001.74 165.59,-1001.74 1096.63,-1001.74 1176.36,-1001.74 1191.7,-717.99 1194.66,-610.95"/>
<polygon fill="black" stroke="black" points="1198.15,-611.28 1194.9,-601.2 1191.15,-611.11 1198.15,-611.28"/>
<text xml:space="preserve" text-anchor="middle" x="625.9" y="-1004.94" font-family="Times New Roman,serif" font-size="14.00">&#39;%&#39;,&#39;&amp;&#39;,&#39;(&#39;,&#39;)&#39;,&#39;*&#39;,&#39;,&#39;,&#39;/&#39;,&#39;;&#39;,&#39;[&#39;,&#39;]&#39;,&#39;{&#39;,&#39;|&#39;,&#39;}&#39;</text>
</g>
<!-- q1 -->
<g id="node5" class="node">
<title>q1</title>
<ellipse fill="none" stroke="black" cx="498.14" cy="-956.74" rx="20.13" ry="20.13"/>
<text xml:space="preserve" text-anchor="middle" x="498.14" y="-951.69" font-family="Times New Roman,serif" font-size="14.00">q1</text>
</g>
<!-- q0&#45;&gt;q1 -->
<g id="edge4" class="edge">
<title>q0&#45;&gt;q1</title>
<path fill="none" stroke="black" d="M69.53,-672.82C72.59,-726.84 83.91,-885.85 112.6,-927.74 128.02,-950.25 138.3,-958.74 165.59,-958.74 165.59,-958.74 165.59,-958.74 368.8,-958.74 402.08,-958.74 440.21,-958.06 466.21,-957.49"/>
<polygon fill="black" stroke="black" points="466.14,-960.99 476.06,-957.27 465.98,-953.99 466.14,-960.99"/>
<text xml:space="preserve" text-anchor="middle" x="233.46" y="-961.94" font-family="Times New Roman,serif" font-size="14.00">&#39;&#45;&#39;</text>
</g>
<!-- q2 -->
<g id="node6" class="node">
<title>q2</title>
<ellipse fill="none" stroke="black" cx="758.26" cy="-911.74" rx="20.13" ry="20.13"/>
<text xml:space="preserve" text-anchor="middle" x="758.26" y="-906.69" font-family="Times New Roman,serif" font-size="14.00">q2</text>
</g>
<!-- q0&#45;&gt;q2 -->
<g id="edge7" class="edge">
<title>q0&#45;&gt;q2</title>
<path fill="none" stroke="black" d="M71.36,-672.95C80.8,-731.9 114.09,-913.74 165.59,-913.74 165.59,-913.74 165.59,-913.74 499.14,-913.74 581.18,-913.74 677.88,-912.71 726.32,-912.13"/>
<polygon fill="black" stroke="black" points="726.36,-915.63 736.32,-912.01 726.28,-908.63 726.36,-915.63"/>
<text xml:space="preserve" text-anchor="middle" x="300.32" y="-916.94" font-family="Times New Roman,serif" font-size="14.00">&#39;=&#39;</text>
</g>
<!-- q4 -->
<g id="node7" class="node">
<title>q4</title>
<ellipse fill="none" stroke="black" cx="166.59" cy="-860.74" rx="20.13" ry="20.13"/>
<text xml:space="preserve" text-anchor="middle" x="166.59" y="-855.69" font-family="Times New Roman,serif" font-size="14.00">q4</text>
</g>
<!-- q0&#45;&gt;q4 -->
<g id="edge11" class="edge">
<title>q0&#45;&gt;q4</title>
<path fill="none" stroke="black" d="M73.93,-672.71C84.17,-705.74 108.56,-777.64 141.85,-831.74 142.98,-833.57 144.2,-835.41 145.49,-837.22"/>
<polygon fill="black" stroke="black" points="142.42,-838.97 151.29,-844.76 147.97,-834.7 142.42,-838.97"/>
<text xml:space="preserve" text-anchor="middle" x="118.22" y="-798.23" font-family="Times New Roman,serif" font-size="14.00">&#39;a&#39;</text>
</g>
<!-- q6 -->
<g id="node9" class="node">
<title>q6</title>
<ellipse fill="none" stroke="black" cx="166.59" cy="-802.74" rx="20.13" ry="20.13"/>
<text xml:space="preserve" text-anchor="middle" x="166.59" y="-797.69" font-family="Times New Roman,serif" font-size="14.00">q6</text>
</g>
<!-- q0&#45;&gt;q6 -->
<g id="edge60" class="edge">
<title>q0&#45;&gt;q6</title>
<path fill="none" stroke="black" d="M78.11,-671.75C91.46,-695.26 116.94,-738.76 141.85,-773.74 143.1,-775.49 144.41,-777.27 145.77,-779.04"/>
<polygon fill="black" stroke="black" points="142.73,-780.84 151.69,-786.5 148.21,-776.49 142.73,-780.84"/>
<text xml:space="preserve" text-anchor="middle" x="118.22" y="-748.39" font-family="Times New Roman,serif" font-size="14.00">&#39;s&#39;</text>
</g>
<!-- q8 -->
<g id="node11" class="node">
<title>q8</title>
<ellipse fill="none" stroke="black" cx="166.59" cy="-744.74" rx="20.13" ry="20.13"/>
<text xml:space="preserve" text-anchor="middle" x="166.59" y="-739.69" font-family="Times New Roman,serif" font-size="14.00">q8</text>
</g>
<!-- q0&#45;&gt;q8 -->
<g id="edge53" class="edge">
<title>q0&#45;&gt;q8</title>
<path fill="none" stroke="black" d="M84.18,-669.2C100.1,-683.97 124.99,-707.06 143.06,-723.83"/>
<polygon fill="black" stroke="black" points="140.49,-726.22 150.2,-730.46 145.25,-721.09 140.49,-726.22"/>
<text xml:space="preserve" text-anchor="middle" x="118.22" y="-708.33" font-family="Times New Roman,serif" font-size="14.00">&#39;p&#39;</text>
</g>
<!-- q14 -->
<g id="node17" class="node">
<title>q14</title>
<ellipse fill="none" stroke="black" cx="166.59" cy="-681.74" rx="24.74" ry="24.74"/>
<text xml:space="preserve" text-anchor="middle" x="166.59" y="-676.69" font-family="Times New Roman,serif" font-size="14.00">q14</text>
</g>
<!-- q0&#45;&gt;q14 -->
<g id="edge69" class="edge">
<title>q0&#45;&gt;q14</title>
<path fill="none" stroke="black" d="M93.07,-661.55C104.79,-664.81 119.02,-668.77 131.75,-672.32"/>
<polygon fill="black" stroke="black" points="130.43,-675.58 141,-674.89 132.3,-668.84 130.43,-675.58"/>
<text xml:space="preserve" text-anchor="middle" x="118.22" y="-673.05" font-family="Times New Roman,serif" font-size="14.00">&#39;v&#39;</text>
</g>
<!-- q16 -->
<g id="node19" class="node">
<title>q16</title>
<ellipse fill="none" stroke="black" cx="625.9" cy="-628.74" rx="24.74" ry="24.74"/>
<text xml:space="preserve" text-anchor="middle" x="625.9" y="-623.69" font-family="Times New Roman,serif" font-size="14.00">q16</text>
</g>
<!-- q0&#45;&gt;q16 -->
<g id="edge16" class="edge">
<title>q0&#45;&gt;q16</title>
<path fill="none" stroke="black" d="M90.88,-645.2C110.25,-637.78 139.26,-628.74 165.59,-628.74 165.59,-628.74 165.59,-628.74 436.27,-628.74 489.61,-628.74 551.43,-628.74 589.35,-628.74"/>
<polygon fill="black" stroke="black" points="589.27,-632.24 599.27,-628.74 589.27,-625.24 589.27,-632.24"/>
<text xml:space="preserve" text-anchor="middle" x="300.32" y="-631.94" font-family="Times New Roman,serif" font-size="14.00">&#39;b&#39;</text>
</g>
<!-- q23 -->
<g id="node26" class="node">
<title>q23</title>
<ellipse fill="none" stroke="black" cx="825.74" cy="-525.74" rx="24.74" ry="24.74"/>
<text xml:space="preserve" text-anchor="middle" x="825.74" y="-520.69" font-family="Times New Roman,serif" font-size="14.00">q23</text>
</g>
<!-- q0&#45;&gt;q23 -->
<g id="edge23" class="edge">
<title>q0&#45;&gt;q23</title>
<path fill="none" stroke="black" d="M75.21,-637.4C87.85,-607.58 118.44,-549.74 165.59,-549.74 165.59,-549.74 165.59,-549.74 626.9,-549.74 684.4,-549.74 750.63,-539.62 790.01,-532.52"/>
<polygon fill="black" stroke="black" points="790.41,-536.01 799.61,-530.75 789.14,-529.13 790.41,-536.01"/>
<text xml:space="preserve" text-anchor="middle" x="367.8" y="-552.94" font-family="Times New Roman,serif" font-size="14.00">&#39;e&#39;</text>
</g>
<!-- q27 -->
<g id="node30" class="node">
<title>q27</title>
<ellipse fill="none" stroke="black" cx="166.59" cy="-495.74" rx="24.74" ry="24.74"/>
<text xml:space="preserve" text-anchor="middle" x="166.59" y="-490.69" font-family="Times New Roman,serif" font-size="14.00">q27</text>
</g>
<!-- q0&#45;&gt;q27 -->
<g id="edge18" class="edge">
<title>q0&#45;&gt;q27</title>
<path fill="none" stroke="black" d="M69.85,-636.63C72.73,-608.25 82.13,-553.04 112.6,-519.24 117.81,-513.46 124.7,-509.03 131.78,-505.66"/>
<polygon fill="black" stroke="black" points="132.78,-509.03 140.72,-502.02 130.14,-502.55 132.78,-509.03"/>
<text xml:space="preserve" text-anchor="middle" x="118.22" y="-522.44" font-family="Times New Roman,serif" font-size="14.00">&#39;c&#39;</text>
</g>
<!-- q34 -->
<g id="node37" class="node">
<title>q34</title>
<ellipse fill="none" stroke="black" cx="166.59" cy="-421.74" rx="24.74" ry="24.74"/>
<text xml:space="preserve" text-anchor="middle" x="166.59" y="-416.69" font-family="Times New Roman,serif" font-size="14.00">q34</text>
</g>
<!-- q0&#45;&gt;q34 -->
<g id="edge54" class="edge">
<title>q0&#45;&gt;q34</title>
<path fill="none" stroke="black" d="M71.04,-636.63C75.77,-605.41 87.93,-540.04 112.6,-490.24 120.1,-475.1 131.22,-460.05 141.34,-447.94"/>
<polygon fill="black" stroke="black" points="143.94,-450.29 147.82,-440.43 138.64,-445.71 143.94,-450.29"/>
<text xml:space="preserve" text-anchor="middle" x="118.22" y="-493.44" font-family="Times New Roman,serif" font-size="14.00">&#39;r&#39;</text>
</g>
<!-- q37 -->
<g id="node40" class="node">
<title>q37</title>
<ellipse fill="none" stroke="black" cx="625.9" cy="-307.74" rx="24.74" ry="24.74"/>
<text xml:space="preserve" text-anchor="middle" x="625.9" y="-302.69" font-family="Times New Roman,serif" font-size="14.00">q37</text>
</g>
<!-- q0&#45;&gt;q37 -->
<g id="edge70" class="edge">
<title>q0&#45;&gt;q37</title>
<path fill="none" stroke="black" d="M69.83,-636.57C75.07,-566.36 98.43,-316.74 165.59,-316.74 165.59,-316.74 165.59,-316.74 436.27,-316.74 489.67,-316.74 551.47,-313.09 589.37,-310.44"/>
<polygon fill="black" stroke="black" points="589.56,-313.94 599.29,-309.73 589.06,-306.96 589.56,-313.94"/>
<text xml:space="preserve" text-anchor="middle" x="300.32" y="-319.94" font-family="Times New Roman,serif" font-size="14.00">&#39;w&#39;</text>
</g>
<!-- q44 -->
<g id="node47" class="node">
<title>q44</title>
<ellipse fill="none" stroke="black" cx="625.9" cy="-181.74" rx="24.74" ry="24.74"/>
<text xml:space="preserve" text-anchor="middle" x="625.9" y="-176.69" font-family="Times New Roman,serif" font-size="14.00">q44</text>
</g>
<!-- q0&#45;&gt;q44 -->
<g id="edge36" class="edge">
<title>q0&#45;&gt;q44</title>
<path fill="none" stroke="black" d="M68.52,-636.34C68.66,-551.21 74.72,-199.74 165.59,-199.74 165.59,-199.74 165.59,-199.74 436.27,-199.74 490,-199.74 551.95,-192.41 589.76,-187.11"/>
<polygon fill="black" stroke="black" points="590.25,-190.57 599.65,-185.68 589.25,-183.64 590.25,-190.57"/>
<text xml:space="preserve" text-anchor="middle" x="300.32" y="-202.94" font-family="Times New Roman,serif" font-size="14.00">&#39;i&#39;</text>
</g>
<!-- q48 -->
<g id="node51" class="node">
<title>q48</title>
<ellipse fill="none" stroke="black" cx="367.8" cy="-67.74" rx="24.74" ry="24.74"/>
<text xml:space="preserve" text-anchor="middle" x="367.8" y="-62.69" font-family="Times New Roman,serif" font-size="14.00">q48</text>
</g>
<!-- q0&#45;&gt;q48 -->
<g id="edge42" class="edge">
<title>q0&#45;&gt;q48</title>
<path fill="none" stroke="black" d="M69.32,-636.39C72.68,-554.42 87.68,-224.16 112.6,-185.74 162.01,-109.55 274.49,-81.73 331.81,-72.25"/>
<polygon fill="black" stroke="black" points="332,-75.76 341.34,-70.77 330.92,-68.85 332,-75.76"/>
<text xml:space="preserve" text-anchor="middle" x="166.59" y="-153.3" font-family="Times New Roman,serif" font-size="14.00">&#39;l&#39;</text>
</g>
<!-- q49 -->
<g id="node52" class="node">
<title>q49</title>
<ellipse fill="none" stroke="black" cx="893.21" cy="-24.74" rx="24.74" ry="24.74"/>
<text xml:space="preserve" text-anchor="middle" x="893.21" y="-19.69" font-family="Times New Roman,serif" font-size="14.00">q49</text>
</g>
<!-- q0&#45;&gt;q49 -->
<g id="edge32" class="edge">
<title>q0&#45;&gt;q49</title>
<path fill="none" stroke="black" d="M69.42,-636.48C74.31,-532.69 101.66,-21.74 165.59,-21.74 165.59,-21.74 165.59,-21.74 759.26,-21.74 792.3,-21.74 829.94,-22.67 856.71,-23.5"/>
<polygon fill="black" stroke="black" points="856.58,-27 866.68,-23.82 856.8,-20 856.58,-27"/>
<text xml:space="preserve" text-anchor="middle" x="367.8" y="-24.94" font-family="Times New Roman,serif" font-size="14.00">&#39;g&#39;</text>
</g>
<!-- q3&#45;&gt;q50 -->
<g id="edge9" class="edge">
<title>q3&#45;&gt;q50</title>
<path fill="none" stroke="black" d="M257.88,-1044.59C284.33,-1045.48 328.65,-1046.74 366.8,-1046.74 366.8,-1046.74 366.8,-1046.74 1096.63,-1046.74 1123.92,-1046.74 1134.85,-1038.68 1149.62,-1015.74 1192.35,-949.36 1196.06,-707.83 1195.78,-611.15"/>
<polygon fill="black" stroke="black" points="1199.28,-611.33 1195.73,-601.34 1192.28,-611.36 1199.28,-611.33"/>
<text xml:space="preserve" text-anchor="middle" x="758.26" y="-1049.94" font-family="Times New Roman,serif" font-size="14.00">&#39;=&#39;</text>
</g>
<!-- q1&#45;&gt;q50 -->
<g id="edge10" class="edge">
<title>q1&#45;&gt;q50</title>
<path fill="none" stroke="black" d="M518.57,-956.61C561.58,-956.34 668.08,-955.74 757.26,-955.74 757.26,-955.74 757.26,-955.74 1096.63,-955.74 1130.9,-955.74 1134.78,-930.62 1149.62,-899.74 1173.78,-849.47 1187.54,-687.38 1192.83,-611.11"/>
<polygon fill="black" stroke="black" points="1196.32,-611.36 1193.5,-601.15 1189.33,-610.89 1196.32,-611.36"/>
<text xml:space="preserve" text-anchor="middle" x="893.21" y="-958.94" font-family="Times New Roman,serif" font-size="14.00">&#39;&gt;&#39;</text>
</g>
<!-- q2&#45;&gt;q50 -->
<g id="edge8" class="edge">
<title>q2&#45;&gt;q50</title>
<path fill="none" stroke="black" d="M778.64,-911.5C804.52,-911.2 851.82,-910.74 892.21,-910.74 892.21,-910.74 892.21,-910.74 1096.63,-910.74 1124.15,-910.74 1134.37,-901.64 1149.62,-878.74 1178.36,-835.58 1189.71,-684.17 1193.6,-610.97"/>
<polygon fill="black" stroke="black" points="1197.09,-611.18 1194.1,-601.01 1190.1,-610.82 1197.09,-611.18"/>
<text xml:space="preserve" text-anchor="middle" x="960.69" y="-913.94" font-family="Times New Roman,serif" font-size="14.00">&#39;=&#39;</text>
</g>
<!-- q5 -->
<g id="node8" class="node">
<title>q5</title>
<ellipse fill="none" stroke="black" cx="498.14" cy="-868.74" rx="20.13" ry="20.13"/>
<text xml:space="preserve" text-anchor="middle" x="498.14" y="-863.69" font-family="Times New Roman,serif" font-size="14.00">q5</text>
</g>
<!-- q4&#45;&gt;q5 -->
<g id="edge19" class="edge">
<title>q4&#45;&gt;q5</title>
<path fill="none" stroke="black" d="M186.73,-861.2C241.43,-862.53 398.82,-866.35 466.07,-867.98"/>
<polygon fill="black" stroke="black" points="465.94,-871.48 476.02,-868.22 466.11,-864.48 465.94,-871.48"/>
<text xml:space="preserve" text-anchor="middle" x="300.32" y="-867.72" font-family="Times New Roman,serif" font-size="14.00">&#39;d&#39;</text>
</g>
<!-- q5&#45;&gt;q50 -->
<g id="edge20" class="edge">
<title>q5&#45;&gt;q50</title>
<path fill="none" stroke="black" d="M518.71,-869.33C622.04,-872.25 1101.26,-883.41 1149.62,-840.74 1183.17,-811.14 1192.11,-679.14 1194.49,-611.29"/>
<polygon fill="black" stroke="black" points="1197.99,-611.42 1194.81,-601.31 1190.99,-611.2 1197.99,-611.42"/>
<text xml:space="preserve" text-anchor="middle" x="893.21" y="-875.01" font-family="Times New Roman,serif" font-size="14.00">&#39;d&#39;</text>
</g>
<!-- q7 -->
<g id="node10" class="node">
<title>q7</title>
<ellipse fill="none" stroke="black" cx="367.8" cy="-824.74" rx="20.13" ry="20.13"/>
<text xml:space="preserve" text-anchor="middle" x="367.8" y="-819.69" font-family="Times New Roman,serif" font-size="14.00">q7</text>
</g>
<!-- q6&#45;&gt;q7 -->
<g id="edge67" class="edge">
<title>q6&#45;&gt;q7</title>
<path fill="none" stroke="black" d="M187.05,-804.89C221.8,-808.72 294.76,-816.78 336.25,-821.36"/>
<polygon fill="black" stroke="black" points="335.72,-824.83 346.05,-822.45 336.49,-817.87 335.72,-824.83"/>
<text xml:space="preserve" text-anchor="middle" x="233.46" y="-815.53" font-family="Times New Roman,serif" font-size="14.00">&#39;u&#39;</text>
</g>
<!-- q7&#45;&gt;q50 -->
<g id="edge17" class="edge">
<title>q7&#45;&gt;q50</title>
<path fill="none" stroke="black" d="M388.29,-824.87C457.15,-825.31 695.48,-826.74 892.21,-826.74 892.21,-826.74 892.21,-826.74 1096.63,-826.74 1142.43,-826.74 1175.13,-682.29 1188.57,-610.41"/>
<polygon fill="black" stroke="black" points="1192.01,-611.07 1190.36,-600.6 1185.12,-609.81 1192.01,-611.07"/>
<text xml:space="preserve" text-anchor="middle" x="825.74" y="-829.92" font-family="Times New Roman,serif" font-size="14.00">&#39;b&#39;</text>
</g>
<!-- q9 -->
<g id="node12" class="node">
<title>q9</title>
<ellipse fill="none" stroke="black" cx="300.32" cy="-762.74" rx="20.13" ry="20.13"/>
<text xml:space="preserve" text-anchor="middle" x="300.32" y="-757.69" font-family="Times New Roman,serif" font-size="14.00">q9</text>
</g>
<!-- q8&#45;&gt;q9 -->
<g id="edge55" class="edge">
<title>q8&#45;&gt;q9</title>
<path fill="none" stroke="black" d="M187.03,-747.39C208.65,-750.35 243.86,-755.16 269.09,-758.61"/>
<polygon fill="black" stroke="black" points="268.35,-762.04 278.74,-759.92 269.3,-755.1 268.35,-762.04"/>
<text xml:space="preserve" text-anchor="middle" x="233.46" y="-760.12" font-family="Times New Roman,serif" font-size="14.00">&#39;r&#39;</text>
</g>
<!-- q10 -->
<g id="node13" class="node">
<title>q10</title>
<ellipse fill="none" stroke="black" cx="435.27" cy="-765.74" rx="24.74" ry="24.74"/>
<text xml:space="preserve" text-anchor="middle" x="435.27" y="-760.69" font-family="Times New Roman,serif" font-size="14.00">q10</text>
</g>
<!-- q9&#45;&gt;q10 -->
<g id="edge51" class="edge">
<title>q9&#45;&gt;q10</title>
<path fill="none" stroke="black" d="M320.94,-763.18C341.39,-763.64 373.89,-764.37 398.85,-764.94"/>
<polygon fill="black" stroke="black" points="398.47,-768.43 408.55,-765.16 398.63,-761.43 398.47,-768.43"/>
<text xml:space="preserve" text-anchor="middle" x="367.8" y="-767.97" font-family="Times New Roman,serif" font-size="14.00">&#39;o&#39;</text>
</g>
<!-- q11 -->
<g id="node14" class="node">
<title>q11</title>
<ellipse fill="none" stroke="black" cx="625.9" cy="-765.74" rx="24.74" ry="24.74"/>
<text xml:space="preserve" text-anchor="middle" x="625.9" y="-760.69" font-family="Times New Roman,serif" font-size="14.00">q11</text>
</g>
<!-- q10&#45;&gt;q11 -->
<g id="edge33" class="edge">
<title>q10&#45;&gt;q11</title>
<path fill="none" stroke="black" d="M460.16,-765.74C492.81,-765.74 551.63,-765.74 589.43,-765.74"/>
<polygon fill="black" stroke="black" points="589.39,-769.24 599.39,-765.74 589.39,-762.24 589.39,-769.24"/>
<text xml:space="preserve" text-anchor="middle" x="498.14" y="-768.94" font-family="Times New Roman,serif" font-size="14.00">&#39;g&#39;</text>
</g>
<!-- q12 -->
<g id="node15" class="node">
<title>q12</title>
<ellipse fill="none" stroke="black" cx="825.74" cy="-765.74" rx="24.74" ry="24.74"/>
<text xml:space="preserve" text-anchor="middle" x="825.74" y="-760.69" font-family="Times New Roman,serif" font-size="14.00">q12</text>
</g>
<!-- q11&#45;&gt;q12 -->
<g id="edge56" class="edge">
<title>q11&#45;&gt;q12</title>
<path fill="none" stroke="black" d="M650.76,-765.74C685.3,-765.74 749.44,-765.74 789.45,-765.74"/>
<polygon fill="black" stroke="black" points="789.27,-769.24 799.27,-765.74 789.27,-762.24 789.27,-769.24"/>
<text xml:space="preserve" text-anchor="middle" x="758.26" y="-768.94" font-family="Times New Roman,serif" font-size="14.00">&#39;r&#39;</text>
</g>
<!-- q13 -->
<g id="node16" class="node">
<title>q13</title>
<ellipse fill="none" stroke="black" cx="1028.16" cy="-779.74" rx="24.74" ry="24.74"/>
<text xml:space="preserve" text-anchor="middle" x="1028.16" y="-774.69" font-family="Times New Roman,serif" font-size="14.00">q13</text>
</g>
<!-- q12&#45;&gt;q13 -->
<g id="edge12" class="edge">
<title>q12&#45;&gt;q13</title>
<path fill="none" stroke="black" d="M850.91,-767.43C885.99,-769.88 951.23,-774.43 991.74,-777.26"/>
<polygon fill="black" stroke="black" points="991.48,-780.75 1001.7,-777.96 991.97,-773.77 991.48,-780.75"/>
<text xml:space="preserve" text-anchor="middle" x="893.21" y="-775.04" font-family="Times New Roman,serif" font-size="14.00">&#39;a&#39;</text>
</g>
<!-- q13&#45;&gt;q50 -->
<g id="edge45" class="edge">
<title>q13&#45;&gt;q50</title>
<path fill="none" stroke="black" d="M1052.69,-774.03C1072.51,-768.27 1100.71,-757.76 1120.37,-740.74 1159.43,-706.91 1178.97,-648.85 1188.12,-610.14"/>
<polygon fill="black" stroke="black" points="1191.46,-611.28 1190.21,-600.75 1184.62,-609.76 1191.46,-611.28"/>
<text xml:space="preserve" text-anchor="middle" x="1095.63" y="-770.78" font-family="Times New Roman,serif" font-size="14.00">&#39;m&#39;</text>
</g>
<!-- q15 -->
<g id="node18" class="node">
<title>q15</title>
<ellipse fill="none" stroke="black" cx="1028.16" cy="-722.74" rx="24.74" ry="24.74"/>
<text xml:space="preserve" text-anchor="middle" x="1028.16" y="-717.69" font-family="Times New Roman,serif" font-size="14.00">q15</text>
</g>
<!-- q14&#45;&gt;q15 -->
<g id="edge13" class="edge">
<title>q14&#45;&gt;q15</title>
<path fill="none" stroke="black" d="M190.06,-690.37C215.98,-699.55 260.09,-712.74 299.32,-712.74 299.32,-712.74 299.32,-712.74 759.26,-712.74 842.64,-712.74 940.51,-717.63 991.76,-720.57"/>
<polygon fill="black" stroke="black" points="991.46,-724.06 1001.65,-721.15 991.87,-717.07 991.46,-724.06"/>
<text xml:space="preserve" text-anchor="middle" x="498.14" y="-715.94" font-family="Times New Roman,serif" font-size="14.00">&#39;a&#39;</text>
</g>
<!-- q15&#45;&gt;q50 -->
<g id="edge57" class="edge">
<title>q15&#45;&gt;q50</title>
<path fill="none" stroke="black" d="M1053.06,-722.39C1072.85,-720.98 1100.8,-716.27 1120.37,-701.74 1151.48,-678.64 1171.67,-638.53 1183.17,-608.76"/>
<polygon fill="black" stroke="black" points="1186.33,-610.33 1186.5,-599.73 1179.76,-607.91 1186.33,-610.33"/>
<text xml:space="preserve" text-anchor="middle" x="1095.63" y="-723.34" font-family="Times New Roman,serif" font-size="14.00">&#39;r&#39;</text>
</g>
<!-- q17 -->
<g id="node20" class="node">
<title>q17</title>
<ellipse fill="none" stroke="black" cx="825.74" cy="-659.74" rx="24.74" ry="24.74"/>
<text xml:space="preserve" text-anchor="middle" x="825.74" y="-654.69" font-family="Times New Roman,serif" font-size="14.00">q17</text>
</g>
<!-- q16&#45;&gt;q17 -->
<g id="edge24" class="edge">
<title>q16&#45;&gt;q17</title>
<path fill="none" stroke="black" d="M650.76,-632.48C685.3,-637.89 749.44,-647.94 789.45,-654.21"/>
<polygon fill="black" stroke="black" points="788.87,-657.66 799.29,-655.75 789.95,-650.74 788.87,-657.66"/>
<text xml:space="preserve" text-anchor="middle" x="758.26" y="-656.24" font-family="Times New Roman,serif" font-size="14.00">&#39;e&#39;</text>
</g>
<!-- q20 -->
<g id="node23" class="node">
<title>q20</title>
<ellipse fill="none" stroke="black" cx="825.74" cy="-592.74" rx="24.74" ry="24.74"/>
<text xml:space="preserve" text-anchor="middle" x="825.74" y="-587.69" font-family="Times New Roman,serif" font-size="14.00">q20</text>
</g>
<!-- q16&#45;&gt;q20 -->
<g id="edge58" class="edge">
<title>q16&#45;&gt;q20</title>
<path fill="none" stroke="black" d="M650.37,-624.47C684.93,-618.18 749.75,-606.38 789.88,-599.08"/>
<polygon fill="black" stroke="black" points="790.29,-602.56 799.5,-597.33 789.03,-595.68 790.29,-602.56"/>
<text xml:space="preserve" text-anchor="middle" x="758.26" y="-611.78" font-family="Times New Roman,serif" font-size="14.00">&#39;r&#39;</text>
</g>
<!-- q18 -->
<g id="node21" class="node">
<title>q18</title>
<ellipse fill="none" stroke="black" cx="960.69" cy="-667.74" rx="24.74" ry="24.74"/>
<text xml:space="preserve" text-anchor="middle" x="960.69" y="-662.69" font-family="Times New Roman,serif" font-size="14.00">q18</text>
</g>
<!-- q17&#45;&gt;q18 -->
<g id="edge34" class="edge">
<title>q17&#45;&gt;q18</title>
<path fill="none" stroke="black" d="M850.81,-661.19C871.33,-662.42 901.1,-664.21 924.32,-665.61"/>
<polygon fill="black" stroke="black" points="924.09,-669.1 934.28,-666.21 924.51,-662.11 924.09,-669.1"/>
<text xml:space="preserve" text-anchor="middle" x="893.21" y="-668.35" font-family="Times New Roman,serif" font-size="14.00">&#39;g&#39;</text>
</g>
<!-- q19 -->
<g id="node22" class="node">
<title>q19</title>
<ellipse fill="none" stroke="black" cx="1095.63" cy="-667.74" rx="24.74" ry="24.74"/>
<text xml:space="preserve" text-anchor="middle" x="1095.63" y="-662.69" font-family="Times New Roman,serif" font-size="14.00">q19</text>
</g>
<!-- q18&#45;&gt;q19 -->
<g id="edge37" class="edge">
<title>q18&#45;&gt;q19</title>
<path fill="none" stroke="black" d="M985.76,-667.74C1006.28,-667.74 1036.05,-667.74 1059.27,-667.74"/>
<polygon fill="black" stroke="black" points="1059.22,-671.24 1069.22,-667.74 1059.22,-664.24 1059.22,-671.24"/>
<text xml:space="preserve" text-anchor="middle" x="1028.16" y="-670.94" font-family="Times New Roman,serif" font-size="14.00">&#39;i&#39;</text>
</g>
<!-- q19&#45;&gt;q50 -->
<g id="edge46" class="edge">
<title>q19&#45;&gt;q50</title>
<path fill="none" stroke="black" d="M1113.83,-650.84C1128.55,-636.38 1150.02,-615.28 1167.24,-598.37"/>
<polygon fill="black" stroke="black" points="1169.54,-601.01 1174.22,-591.51 1164.63,-596.02 1169.54,-601.01"/>
<text xml:space="preserve" text-anchor="middle" x="1144" y="-628.24" font-family="Times New Roman,serif" font-size="14.00">&#39;n&#39;</text>
</g>
<!-- q21 -->
<g id="node24" class="node">
<title>q21</title>
<ellipse fill="none" stroke="black" cx="960.69" cy="-600.74" rx="24.74" ry="24.74"/>
<text xml:space="preserve" text-anchor="middle" x="960.69" y="-595.69" font-family="Times New Roman,serif" font-size="14.00">q21</text>
</g>
<!-- q20&#45;&gt;q21 -->
<g id="edge25" class="edge">
<title>q20&#45;&gt;q21</title>
<path fill="none" stroke="black" d="M850.81,-594.19C871.33,-595.42 901.1,-597.21 924.32,-598.61"/>
<polygon fill="black" stroke="black" points="924.09,-602.1 934.28,-599.21 924.51,-595.11 924.09,-602.1"/>
<text xml:space="preserve" text-anchor="middle" x="893.21" y="-601.35" font-family="Times New Roman,serif" font-size="14.00">&#39;e&#39;</text>
</g>
<!-- q22 -->
<g id="node25" class="node">
<title>q22</title>
<ellipse fill="none" stroke="black" cx="1095.63" cy="-600.74" rx="24.74" ry="24.74"/>
<text xml:space="preserve" text-anchor="middle" x="1095.63" y="-595.69" font-family="Times New Roman,serif" font-size="14.00">q22</text>
</g>
<!-- q21&#45;&gt;q22 -->
<g id="edge14" class="edge">
<title>q21&#45;&gt;q22</title>
<path fill="none" stroke="black" d="M985.76,-600.74C1006.28,-600.74 1036.05,-600.74 1059.27,-600.74"/>
<polygon fill="black" stroke="black" points="1059.22,-604.24 1069.22,-600.74 1059.22,-597.24 1059.22,-604.24"/>
<text xml:space="preserve" text-anchor="middle" x="1028.16" y="-603.94" font-family="Times New Roman,serif" font-size="14.00">&#39;a&#39;</text>
</g>
<!-- q22&#45;&gt;q50 -->
<g id="edge41" class="edge">
<title>q22&#45;&gt;q50</title>
<path fill="none" stroke="black" d="M1119.78,-593.7C1131.07,-590.27 1144.93,-586.06 1157.68,-582.19"/>
<polygon fill="black" stroke="black" points="1158.51,-585.59 1167.06,-579.34 1156.48,-578.89 1158.51,-585.59"/>
<text xml:space="preserve" text-anchor="middle" x="1144" y="-590.73" font-family="Times New Roman,serif" font-size="14.00">&#39;k&#39;</text>
</g>
<!-- q24 -->
<g id="node27" class="node">
<title>q24</title>
<ellipse fill="none" stroke="black" cx="1028.16" cy="-544.74" rx="24.74" ry="24.74"/>
<text xml:space="preserve" text-anchor="middle" x="1028.16" y="-539.69" font-family="Times New Roman,serif" font-size="14.00">q24</text>
</g>
<!-- q23&#45;&gt;q24 -->
<g id="edge47" class="edge">
<title>q23&#45;&gt;q24</title>
<path fill="none" stroke="black" d="M850.51,-527.99C885.53,-531.31 951.19,-537.54 991.85,-541.39"/>
<polygon fill="black" stroke="black" points="991.31,-544.85 1001.59,-542.31 991.97,-537.89 991.31,-544.85"/>
<text xml:space="preserve" text-anchor="middle" x="893.21" y="-537.22" font-family="Times New Roman,serif" font-size="14.00">&#39;n&#39;</text>
</g>
<!-- q25 -->
<g id="node28" class="node">
<title>q25</title>
<ellipse fill="none" stroke="black" cx="960.69" cy="-494.74" rx="24.74" ry="24.74"/>
<text xml:space="preserve" text-anchor="middle" x="960.69" y="-489.69" font-family="Times New Roman,serif" font-size="14.00">q25</text>
</g>
<!-- q23&#45;&gt;q25 -->
<g id="edge43" class="edge">
<title>q23&#45;&gt;q25</title>
<path fill="none" stroke="black" d="M848.96,-515.91C855.18,-513.45 862.01,-511.01 868.47,-509.24 886.69,-504.25 907.46,-500.78 924.57,-498.49"/>
<polygon fill="black" stroke="black" points="924.77,-502 934.26,-497.28 923.9,-495.05 924.77,-502"/>
<text xml:space="preserve" text-anchor="middle" x="893.21" y="-512.44" font-family="Times New Roman,serif" font-size="14.00">&#39;l&#39;</text>
</g>
<!-- q24&#45;&gt;q50 -->
<g id="edge21" class="edge">
<title>q24&#45;&gt;q50</title>
<path fill="none" stroke="black" d="M1053.32,-544.84C1071.79,-545.24 1097.83,-546.52 1120.37,-550.24 1132.68,-552.27 1145.88,-555.51 1157.72,-558.81"/>
<polygon fill="black" stroke="black" points="1156.55,-562.12 1167.13,-561.55 1158.51,-555.4 1156.55,-562.12"/>
<text xml:space="preserve" text-anchor="middle" x="1095.63" y="-553.44" font-family="Times New Roman,serif" font-size="14.00">&#39;d&#39;</text>
</g>
<!-- q26 -->
<g id="node29" class="node">
<title>q26</title>
<ellipse fill="none" stroke="black" cx="1095.63" cy="-480.74" rx="24.74" ry="24.74"/>
<text xml:space="preserve" text-anchor="middle" x="1095.63" y="-475.69" font-family="Times New Roman,serif" font-size="14.00">q26</text>
</g>
<!-- q25&#45;&gt;q26 -->
<g id="edge61" class="edge">
<title>q25&#45;&gt;q26</title>
<path fill="none" stroke="black" d="M985.76,-492.2C1006.37,-490.03 1036.32,-486.88 1059.59,-484.43"/>
<polygon fill="black" stroke="black" points="1059.65,-487.94 1069.23,-483.41 1058.92,-480.98 1059.65,-487.94"/>
<text xml:space="preserve" text-anchor="middle" x="1028.16" y="-493.41" font-family="Times New Roman,serif" font-size="14.00">&#39;s&#39;</text>
</g>
<!-- q26&#45;&gt;q50 -->
<g id="edge26" class="edge">
<title>q26&#45;&gt;q50</title>
<path fill="none" stroke="black" d="M1118.53,-490.85C1128.61,-496.11 1140.36,-503.13 1149.62,-511.24 1158.28,-518.82 1166.41,-528.25 1173.34,-537.35"/>
<polygon fill="black" stroke="black" points="1170.5,-539.39 1179.22,-545.4 1176.15,-535.26 1170.5,-539.39"/>
<text xml:space="preserve" text-anchor="middle" x="1144" y="-514.44" font-family="Times New Roman,serif" font-size="14.00">&#39;e&#39;</text>
</g>
<!-- q28 -->
<g id="node31" class="node">
<title>q28</title>
<ellipse fill="none" stroke="black" cx="300.32" cy="-495.74" rx="24.74" ry="24.74"/>
<text xml:space="preserve" text-anchor="middle" x="300.32" y="-490.69" font-family="Times New Roman,serif" font-size="14.00">q28</text>
</g>
<!-- q27&#45;&gt;q28 -->
<g id="edge52" class="edge">
<title>q27&#45;&gt;q28</title>
<path fill="none" stroke="black" d="M191.75,-495.74C211.99,-495.74 241.16,-495.74 264.02,-495.74"/>
<polygon fill="black" stroke="black" points="263.8,-499.24 273.8,-495.74 263.8,-492.24 263.8,-499.24"/>
<text xml:space="preserve" text-anchor="middle" x="233.46" y="-498.94" font-family="Times New Roman,serif" font-size="14.00">&#39;o&#39;</text>
</g>
<!-- q29 -->
<g id="node32" class="node">
<title>q29</title>
<ellipse fill="none" stroke="black" cx="435.27" cy="-494.74" rx="24.74" ry="24.74"/>
<text xml:space="preserve" text-anchor="middle" x="435.27" y="-489.69" font-family="Times New Roman,serif" font-size="14.00">q29</text>
</g>
<!-- q28&#45;&gt;q29 -->
<g id="edge48" class="edge">
<title>q28&#45;&gt;q29</title>
<path fill="none" stroke="black" d="M325.4,-495.56C345.92,-495.4 375.69,-495.18 398.91,-495"/>
<polygon fill="black" stroke="black" points="398.89,-498.5 408.86,-494.93 398.84,-491.5 398.89,-498.5"/>
<text xml:space="preserve" text-anchor="middle" x="367.8" y="-498.61" font-family="Times New Roman,serif" font-size="14.00">&#39;n&#39;</text>
</g>
<!-- q30 -->
<g id="node33" class="node">
<title>q30</title>
<ellipse fill="none" stroke="black" cx="625.9" cy="-489.74" rx="24.74" ry="24.74"/>
<text xml:space="preserve" text-anchor="middle" x="625.9" y="-484.69" font-family="Times New Roman,serif" font-size="14.00">q30</text>
</g>
<!-- q29&#45;&gt;q30 -->
<g id="edge62" class="edge">
<title>q29&#45;&gt;q30</title>
<path fill="none" stroke="black" d="M460.16,-494.1C492.81,-493.24 551.63,-491.68 589.43,-490.68"/>
<polygon fill="black" stroke="black" points="589.49,-494.18 599.39,-490.41 589.3,-487.18 589.49,-494.18"/>
<text xml:space="preserve" text-anchor="middle" x="498.14" y="-496.73" font-family="Times New Roman,serif" font-size="14.00">&#39;t&#39;</text>
</g>
<!-- q31 -->
<g id="node34" class="node">
<title>q31</title>
<ellipse fill="none" stroke="black" cx="825.74" cy="-443.74" rx="24.74" ry="24.74"/>
<text xml:space="preserve" text-anchor="middle" x="825.74" y="-438.69" font-family="Times New Roman,serif" font-size="14.00">q31</text>
</g>
<!-- q30&#45;&gt;q31 -->
<g id="edge38" class="edge">
<title>q30&#45;&gt;q31</title>
<path fill="none" stroke="black" d="M650.37,-484.28C685.02,-476.22 750.1,-461.09 790.2,-451.77"/>
<polygon fill="black" stroke="black" points="790.87,-455.2 799.82,-449.53 789.29,-448.39 790.87,-455.2"/>
<text xml:space="preserve" text-anchor="middle" x="758.26" y="-467.18" font-family="Times New Roman,serif" font-size="14.00">&#39;i&#39;</text>
</g>
<!-- q32 -->
<g id="node35" class="node">
<title>q32</title>
<ellipse fill="none" stroke="black" cx="960.69" cy="-427.74" rx="24.74" ry="24.74"/>
<text xml:space="preserve" text-anchor="middle" x="960.69" y="-422.69" font-family="Times New Roman,serif" font-size="14.00">q32</text>
</g>
<!-- q31&#45;&gt;q32 -->
<g id="edge49" class="edge">
<title>q31&#45;&gt;q32</title>
<path fill="none" stroke="black" d="M850.5,-440.88C871.08,-438.4 901.12,-434.79 924.48,-431.97"/>
<polygon fill="black" stroke="black" points="924.66,-435.48 934.17,-430.81 923.82,-428.53 924.66,-435.48"/>
<text xml:space="preserve" text-anchor="middle" x="893.21" y="-441.76" font-family="Times New Roman,serif" font-size="14.00">&#39;n&#39;</text>
</g>
<!-- q33 -->
<g id="node36" class="node">
<title>q33</title>
<ellipse fill="none" stroke="black" cx="1095.63" cy="-413.74" rx="24.74" ry="24.74"/>
<text xml:space="preserve" text-anchor="middle" x="1095.63" y="-408.69" font-family="Times New Roman,serif" font-size="14.00">q33</text>
</g>
<!-- q32&#45;&gt;q33 -->
<g id="edge68" class="edge">
<title>q32&#45;&gt;q33</title>
<path fill="none" stroke="black" d="M985.76,-425.2C1006.37,-423.03 1036.32,-419.88 1059.59,-417.43"/>
<polygon fill="black" stroke="black" points="1059.65,-420.94 1069.23,-416.41 1058.92,-413.98 1059.65,-420.94"/>
<text xml:space="preserve" text-anchor="middle" x="1028.16" y="-426.41" font-family="Times New Roman,serif" font-size="14.00">&#39;u&#39;</text>
</g>
<!-- q33&#45;&gt;q50 -->
<g id="edge27" class="edge">
<title>q33&#45;&gt;q50</title>
<path fill="none" stroke="black" d="M1112.44,-432.25C1123.52,-445.67 1138.3,-464.49 1149.62,-482.24 1160.23,-498.86 1170.46,-518.24 1178.54,-534.61"/>
<polygon fill="black" stroke="black" points="1175.35,-536.05 1182.87,-543.52 1181.65,-532.99 1175.35,-536.05"/>
<text xml:space="preserve" text-anchor="middle" x="1144" y="-485.44" font-family="Times New Roman,serif" font-size="14.00">&#39;e&#39;</text>
</g>
<!-- q35 -->
<g id="node38" class="node">
<title>q35</title>
<ellipse fill="none" stroke="black" cx="300.32" cy="-403.74" rx="24.74" ry="24.74"/>
<text xml:space="preserve" text-anchor="middle" x="300.32" y="-398.69" font-family="Times New Roman,serif" font-size="14.00">q35</text>
</g>
<!-- q34&#45;&gt;q35 -->
<g id="edge28" class="edge">
<title>q34&#45;&gt;q35</title>
<path fill="none" stroke="black" d="M191.44,-418.48C211.78,-415.7 241.27,-411.67 264.28,-408.53"/>
<polygon fill="black" stroke="black" points="264.71,-412 274.15,-407.18 263.76,-405.06 264.71,-412"/>
<text xml:space="preserve" text-anchor="middle" x="233.46" y="-419.12" font-family="Times New Roman,serif" font-size="14.00">&#39;e&#39;</text>
</g>
<!-- q36 -->
<g id="node39" class="node">
<title>q36</title>
<ellipse fill="none" stroke="black" cx="758.26" cy="-388.74" rx="24.74" ry="24.74"/>
<text xml:space="preserve" text-anchor="middle" x="758.26" y="-383.69" font-family="Times New Roman,serif" font-size="14.00">q36</text>
</g>
<!-- q35&#45;&gt;q36 -->
<g id="edge15" class="edge">
<title>q35&#45;&gt;q36</title>
<path fill="none" stroke="black" d="M325.52,-402.94C401.02,-400.46 632.61,-392.84 721.77,-389.91"/>
<polygon fill="black" stroke="black" points="721.74,-393.41 731.62,-389.58 721.51,-386.41 721.74,-393.41"/>
<text xml:space="preserve" text-anchor="middle" x="435.27" y="-403.17" font-family="Times New Roman,serif" font-size="14.00">&#39;a&#39;</text>
</g>
<!-- q36&#45;&gt;q50 -->
<g id="edge22" class="edge">
<title>q36&#45;&gt;q50</title>
<path fill="none" stroke="black" d="M783.01,-384.63C854.46,-372.79 1065.86,-341.83 1120.37,-379.74 1169.48,-413.88 1186.42,-485.39 1192.28,-530.57"/>
<polygon fill="black" stroke="black" points="1188.77,-530.69 1193.39,-540.22 1195.72,-529.88 1188.77,-530.69"/>
<text xml:space="preserve" text-anchor="middle" x="960.69" y="-368.18" font-family="Times New Roman,serif" font-size="14.00">&#39;d&#39;</text>
</g>
<!-- q38 -->
<g id="node41" class="node">
<title>q38</title>
<ellipse fill="none" stroke="black" cx="825.74" cy="-307.74" rx="24.74" ry="24.74"/>
<text xml:space="preserve" text-anchor="middle" x="825.74" y="-302.69" font-family="Times New Roman,serif" font-size="14.00">q38</text>
</g>
<!-- q37&#45;&gt;q38 -->
<g id="edge59" class="edge">
<title>q37&#45;&gt;q38</title>
<path fill="none" stroke="black" d="M650.76,-307.74C685.3,-307.74 749.44,-307.74 789.45,-307.74"/>
<polygon fill="black" stroke="black" points="789.27,-311.24 799.27,-307.74 789.27,-304.24 789.27,-311.24"/>
<text xml:space="preserve" text-anchor="middle" x="758.26" y="-310.94" font-family="Times New Roman,serif" font-size="14.00">&#39;r&#39;</text>
</g>
<!-- q41 -->
<g id="node44" class="node">
<title>q41</title>
<ellipse fill="none" stroke="black" cx="825.74" cy="-240.74" rx="24.74" ry="24.74"/>
<text xml:space="preserve" text-anchor="middle" x="825.74" y="-235.69" font-family="Times New Roman,serif" font-size="14.00">q41</text>
</g>
<!-- q37&#45;&gt;q41 -->
<g id="edge35" class="edge">
<title>q37&#45;&gt;q41</title>
<path fill="none" stroke="black" d="M649.59,-300.05C684.31,-288.29 750.81,-265.77 791.13,-252.12"/>
<polygon fill="black" stroke="black" points="792.22,-255.44 800.57,-248.92 789.97,-248.81 792.22,-255.44"/>
<text xml:space="preserve" text-anchor="middle" x="758.26" y="-273.43" font-family="Times New Roman,serif" font-size="14.00">&#39;h&#39;</text>
</g>
<!-- q39 -->
<g id="node42" class="node">
<title>q39</title>
<ellipse fill="none" stroke="black" cx="960.69" cy="-307.74" rx="24.74" ry="24.74"/>
<text xml:space="preserve" text-anchor="middle" x="960.69" y="-302.69" font-family="Times New Roman,serif" font-size="14.00">q39</text>
</g>
<!-- q38&#45;&gt;q39 -->
<g id="edge39" class="edge">
<title>q38&#45;&gt;q39</title>
<path fill="none" stroke="black" d="M850.81,-307.74C871.33,-307.74 901.1,-307.74 924.32,-307.74"/>
<polygon fill="black" stroke="black" points="924.27,-311.24 934.27,-307.74 924.27,-304.24 924.27,-311.24"/>
<text xml:space="preserve" text-anchor="middle" x="893.21" y="-310.94" font-family="Times New Roman,serif" font-size="14.00">&#39;i&#39;</text>
</g>
<!-- q40 -->
<g id="node43" class="node">
<title>q40</title>
<ellipse fill="none" stroke="black" cx="1095.63" cy="-307.74" rx="24.74" ry="24.74"/>
<text xml:space="preserve" text-anchor="middle" x="1095.63" y="-302.69" font-family="Times New Roman,serif" font-size="14.00">q40</text>
</g>
<!-- q39&#45;&gt;q40 -->
<g id="edge63" class="edge">
<title>q39&#45;&gt;q40</title>
<path fill="none" stroke="black" d="M985.76,-307.74C1006.28,-307.74 1036.05,-307.74 1059.27,-307.74"/>
<polygon fill="black" stroke="black" points="1059.22,-311.24 1069.22,-307.74 1059.22,-304.24 1059.22,-311.24"/>
<text xml:space="preserve" text-anchor="middle" x="1028.16" y="-310.94" font-family="Times New Roman,serif" font-size="14.00">&#39;t&#39;</text>
</g>
<!-- q40&#45;&gt;q50 -->
<g id="edge29" class="edge">
<title>q40&#45;&gt;q50</title>
<path fill="none" stroke="black" d="M1120.31,-312.47C1130.78,-315.75 1142.35,-321.21 1149.62,-330.24 1174.01,-360.48 1186.89,-470.17 1192.26,-530.42"/>
<polygon fill="black" stroke="black" points="1188.76,-530.6 1193.11,-540.27 1195.74,-530 1188.76,-530.6"/>
<text xml:space="preserve" text-anchor="middle" x="1144" y="-333.44" font-family="Times New Roman,serif" font-size="14.00">&#39;e&#39;</text>
</g>
<!-- q42 -->
<g id="node45" class="node">
<title>q42</title>
<ellipse fill="none" stroke="black" cx="960.69" cy="-240.74" rx="24.74" ry="24.74"/>
<text xml:space="preserve" text-anchor="middle" x="960.69" y="-235.69" font-family="Times New Roman,serif" font-size="14.00">q42</text>
</g>
<!-- q41&#45;&gt;q42 -->
<g id="edge40" class="edge">
<title>q41&#45;&gt;q42</title>
<path fill="none" stroke="black" d="M850.81,-240.74C871.33,-240.74 901.1,-240.74 924.32,-240.74"/>
<polygon fill="black" stroke="black" points="924.27,-244.24 934.27,-240.74 924.27,-237.24 924.27,-244.24"/>
<text xml:space="preserve" text-anchor="middle" x="893.21" y="-243.94" font-family="Times New Roman,serif" font-size="14.00">&#39;i&#39;</text>
</g>
<!-- q43 -->
<g id="node46" class="node">
<title>q43</title>
<ellipse fill="none" stroke="black" cx="1095.63" cy="-240.74" rx="24.74" ry="24.74"/>
<text xml:space="preserve" text-anchor="middle" x="1095.63" y="-235.69" font-family="Times New Roman,serif" font-size="14.00">q43</text>
</g>
<!-- q42&#45;&gt;q43 -->
<g id="edge44" class="edge">
<title>q42&#45;&gt;q43</title>
<path fill="none" stroke="black" d="M985.76,-240.74C1006.28,-240.74 1036.05,-240.74 1059.27,-240.74"/>
<polygon fill="black" stroke="black" points="1059.22,-244.24 1069.22,-240.74 1059.22,-237.24 1059.22,-244.24"/>
<text xml:space="preserve" text-anchor="middle" x="1028.16" y="-243.94" font-family="Times New Roman,serif" font-size="14.00">&#39;l&#39;</text>
</g>
<!-- q43&#45;&gt;q50 -->
<g id="edge30" class="edge">
<title>q43&#45;&gt;q50</title>
<path fill="none" stroke="black" d="M1115.28,-256.52C1127.04,-267.55 1141.48,-283.28 1149.62,-300.24 1185.91,-375.84 1193.92,-475.41 1195.38,-530.21"/>
<polygon fill="black" stroke="black" points="1191.88,-530.09 1195.58,-540.01 1198.88,-529.95 1191.88,-530.09"/>
<text xml:space="preserve" text-anchor="middle" x="1144" y="-303.44" font-family="Times New Roman,serif" font-size="14.00">&#39;e&#39;</text>
</g>
<!-- q44&#45;&gt;q50 -->
<g id="edge31" class="edge">
<title>q44&#45;&gt;q50</title>
<path fill="none" stroke="black" d="M650.96,-181.74C688.2,-181.74 762.05,-181.74 824.74,-181.74 824.74,-181.74 824.74,-181.74 1096.63,-181.74 1168.02,-181.74 1188.38,-430.99 1193.66,-530.46"/>
<polygon fill="black" stroke="black" points="1190.16,-530.49 1194.16,-540.31 1197.15,-530.14 1190.16,-530.49"/>
<text xml:space="preserve" text-anchor="middle" x="960.69" y="-184.94" font-family="Times New Roman,serif" font-size="14.00">&#39;f&#39;</text>
</g>
<!-- q45 -->
<g id="node48" class="node">
<title>q45</title>
<ellipse fill="none" stroke="black" cx="825.74" cy="-127.74" rx="24.74" ry="24.74"/>
<text xml:space="preserve" text-anchor="middle" x="825.74" y="-122.69" font-family="Times New Roman,serif" font-size="14.00">q45</text>
</g>
<!-- q44&#45;&gt;q45 -->
<g id="edge50" class="edge">
<title>q44&#45;&gt;q45</title>
<path fill="none" stroke="black" d="M650.14,-174.9C671.71,-168.59 704.73,-159.06 733.52,-151.24 752.24,-146.15 773.2,-140.73 790.3,-136.38"/>
<polygon fill="black" stroke="black" points="791.15,-139.78 799.98,-133.93 789.43,-132.99 791.15,-139.78"/>
<text xml:space="preserve" text-anchor="middle" x="758.26" y="-154.44" font-family="Times New Roman,serif" font-size="14.00">&#39;n&#39;</text>
</g>
<!-- q46 -->
<g id="node49" class="node">
<title>q46</title>
<ellipse fill="none" stroke="black" cx="960.69" cy="-120.74" rx="24.74" ry="24.74"/>
<text xml:space="preserve" text-anchor="middle" x="960.69" y="-115.69" font-family="Times New Roman,serif" font-size="14.00">q46</text>
</g>
<!-- q45&#45;&gt;q46 -->
<g id="edge64" class="edge">
<title>q45&#45;&gt;q46</title>
<path fill="none" stroke="black" d="M850.81,-126.47C871.33,-125.39 901.1,-123.82 924.32,-122.6"/>
<polygon fill="black" stroke="black" points="924.47,-126.1 934.28,-122.08 924.11,-119.11 924.47,-126.1"/>
<text xml:space="preserve" text-anchor="middle" x="893.21" y="-128.67" font-family="Times New Roman,serif" font-size="14.00">&#39;t&#39;</text>
</g>
<!-- q47 -->
<g id="node50" class="node">
<title>q47</title>
<ellipse fill="none" stroke="black" cx="1095.63" cy="-126.74" rx="24.74" ry="24.74"/>
<text xml:space="preserve" text-anchor="middle" x="1095.63" y="-121.69" font-family="Times New Roman,serif" font-size="14.00">q47</text>
</g>
<!-- q46&#45;&gt;q47 -->
<g id="edge6" class="edge">
<title>q46&#45;&gt;q47</title>
<path fill="none" stroke="black" d="M985.76,-121.82C1006.28,-122.75 1036.05,-124.09 1059.27,-125.14"/>
<polygon fill="black" stroke="black" points="1059.08,-128.64 1069.23,-125.59 1059.39,-121.64 1059.08,-128.64"/>
<text xml:space="preserve" text-anchor="middle" x="1028.16" y="-128" font-family="Times New Roman,serif" font-size="14.00">&#39;3&#39;</text>
</g>
<!-- q47&#45;&gt;q50 -->
<g id="edge5" class="edge">
<title>q47&#45;&gt;q50</title>
<path fill="none" stroke="black" d="M1120.14,-131.95C1130.84,-135.56 1142.64,-141.53 1149.62,-151.24 1192.73,-211.22 1196.31,-437.01 1195.88,-530.17"/>
<polygon fill="black" stroke="black" points="1192.38,-530.09 1195.81,-540.11 1199.38,-530.14 1192.38,-530.09"/>
<text xml:space="preserve" text-anchor="middle" x="1144" y="-154.44" font-family="Times New Roman,serif" font-size="14.00">&#39;2&#39;</text>
</g>
<!-- q48&#45;&gt;q50 -->
<g id="edge65" class="edge">
<title>q48&#45;&gt;q50</title>
<path fill="none" stroke="black" d="M392.93,-67.74C418.72,-67.74 460.82,-67.74 497.14,-67.74 497.14,-67.74 497.14,-67.74 1096.63,-67.74 1190.73,-67.74 1196.74,-410.93 1195.98,-530.35"/>
<polygon fill="black" stroke="black" points="1192.48,-529.98 1195.9,-540.01 1199.48,-530.04 1192.48,-529.98"/>
<text xml:space="preserve" text-anchor="middle" x="825.74" y="-70.94" font-family="Times New Roman,serif" font-size="14.00">&#39;t&#39;</text>
</g>
<!-- q49&#45;&gt;q50 -->
<g id="edge66" class="edge">
<title>q49&#45;&gt;q50</title>
<path fill="none" stroke="black" d="M917.6,-18.7C968.47,-7.14 1089.41,11.54 1149.62,-53.74 1181.71,-88.52 1191.93,-414.33 1194.57,-530.14"/>
<polygon fill="black" stroke="black" points="1191.07,-530.18 1194.79,-540.11 1198.07,-530.03 1191.07,-530.18"/>
<text xml:space="preserve" text-anchor="middle" x="1028.16" y="-12.34" font-family="Times New Roman,serif" font-size="14.00">&#39;t&#39;</text>
</g>
</g>
</svg>
